PathFileType	4	(X/Y/Z)	Gait_latera_markers.trc
DataRate	CameraRate	NumFrames	NumMarkers	Units	OrigDataRate	OrigDataStartFrame	OrigNumFrames
100	100	10	38	m	100	56	88
Frame#	Time	RASI			RPSI			LPSI			LASI			RTROCH			RTHI			RTHI2			RTHI3			RTHI4			RKNE			RKNEM			RTIB			RTIB2			RTIB3			RTIB4			RANK			RANKM			RHEE			RTOE			RTOEL			RTOEM			LTROCH			LTHI			LTHI2			LTHI3			LTHI4			LKNE			LKNEM			LTIB			LTIB2			LTIB3			LTIB4			LANK			LANKM			LHEE			LTOE			LTOEL			LTOEM
		X1	Y1	Z1	X2	Y2	Z2	X3	Y3	Z3	X4	Y4	Z4	X5	Y5	Z5	X6	Y6	Z6	X7	Y7	Z7	X8	Y8	Z8	X9	Y9	Z9	X10	Y10	Z10	X11	Y11	Z11	X12	Y12	Z12	X13	Y13	Z13	X14	Y14	Z14	X15	Y15	Z15	X16	Y16	Z16	X17	Y17	Z17	X18	Y18	Z18	X19	Y19	Z19	X20	Y20	Z20	X21	Y21	Z21	X22	Y22	Z22	X23	Y23	Z23	X24	Y24	Z24	X25	Y25	Z25	X26	Y26	Z26	X27	Y27	Z27	X28	Y28	Z28	X29	Y29	Z29	X30	Y30	Z30	X31	Y31	Z31	X32	Y32	Z32	X33	Y33	Z33	X34	Y34	Z34	X35	Y35	Z35	X36	Y36	Z36	X37	Y37	Z37	X38	Y38	Z38

56	0.550000	-0.285565	0.964152	-0.107218	-0.225052	0.995988	-0.291832	-0.129687	0.986405	-0.286378	-0.058728	0.964298	-0.101717	-0.348108	0.886922	-0.166327	-0.360139	0.764570	-0.138621	-0.351989	0.787955	-0.077022	-0.347221	0.714442	-0.039576	-0.355225	0.685543	-0.096029	-0.329429	0.546271	-0.040869	-0.213177	0.554391	-0.024682	-0.344838	0.409958	-0.037864	-0.331241	0.424900	0.022769	-0.331239	0.339695	0.045245	-0.346195	0.330226	-0.019549	-0.303950	0.116082	0.043784	-0.243796	0.139005	0.092403	-0.246046	0.050023	0.023315	-0.343960	0.119185	0.223317	-0.380411	0.071229	0.170816	-0.286157	0.097457	0.233802	-0.010389	0.896952	-0.186802	-0.014183	0.690874	-0.192889	-0.027999	0.683617	-0.134086	-0.045276	0.604302	-0.151931	-0.031790	0.607848	-0.214033	-0.051149	0.521350	-0.216267	-0.157764	0.540970	-0.204128	-0.046733	0.310144	-0.301724	-0.064280	0.302585	-0.239705	-0.077687	0.218809	-0.263792	-0.060485	0.231420	-0.322944	-0.092995	0.102479	-0.349649	-0.164647	0.120121	-0.307782	-0.148821	0.059326	-0.403460	-0.075291	0.054972	-0.176111	-0.034320	0.043379	-0.235255	-0.129853	0.050530	-0.184356
57	0.560000	-0.285991	0.961704	-0.096023	-0.226315	0.994288	-0.280860	-0.130664	0.984942	-0.275583	-0.059003	0.962161	-0.091187	-0.348655	0.884326	-0.155110	-0.360786	0.760863	-0.129601	-0.351336	0.782812	-0.067241	-0.345703	0.709167	-0.031836	-0.354909	0.681235	-0.088603	-0.327154	0.543243	-0.035728	-0.210118	0.550398	-0.019720	-0.342836	0.407028	-0.027138	-0.329582	0.425158	0.032912	-0.330334	0.341246	0.060419	-0.345020	0.328514	-0.004324	-0.304512	0.117141	0.071429	-0.244722	0.141799	0.118397	-0.248087	0.049483	0.053903	-0.345533	0.130012	0.250321	-0.382532	0.079885	0.199932	-0.287817	0.107596	0.261964	-0.010641	0.895606	-0.176938	-0.014444	0.689735	-0.185124	-0.028078	0.681884	-0.126692	-0.045420	0.602407	-0.145303	-0.032096	0.606826	-0.207324	-0.051247	0.520362	-0.210525	-0.157728	0.539828	-0.197811	-0.047039	0.310212	-0.298655	-0.063783	0.302400	-0.236655	-0.077797	0.218483	-0.261915	-0.060723	0.231729	-0.320807	-0.093168	0.102856	-0.348798	-0.164955	0.120152	-0.306985	-0.149039	0.059568	-0.403203	-0.075339	0.054812	-0.176102	-0.034284	0.043280	-0.234804	-0.129566	0.050449	-0.184233
58	0.570000	-0.286436	0.959321	-0.084606	-0.227811	0.992574	-0.269887	-0.132011	0.983584	-0.265193	-0.059436	0.960101	-0.081009	-0.349217	0.881545	-0.143939	-0.361840	0.757788	-0.121063	-0.351431	0.778651	-0.058190	-0.344679	0.703612	-0.024104	-0.354498	0.677257	-0.081696	-0.325535	0.538644	-0.027288	-0.207487	0.547328	-0.013989	-0.341624	0.404541	-0.016554	-0.328532	0.425093	0.042649	-0.329681	0.342897	0.074368	-0.344115	0.326944	0.010438	-0.304402	0.119345	0.096363	-0.244900	0.145097	0.142719	-0.248515	0.050000	0.083024	-0.346738	0.140485	0.274798	-0.384001	0.088953	0.226729	-0.289309	0.117809	0.287611	-0.010773	0.894218	-0.167237	-0.014576	0.688748	-0.177780	-0.026526	0.680615	-0.120360	-0.045102	0.600799	-0.138748	-0.032288	0.606083	-0.200675	-0.051743	0.519548	-0.204381	-0.157644	0.538603	-0.191160	-0.047227	0.310536	-0.295386	-0.064037	0.301725	-0.233593	-0.078083	0.218171	-0.259833	-0.060944	0.232471	-0.318760	-0.093561	0.103648	-0.348329	-0.165303	0.120338	-0.306257	-0.149311	0.059910	-0.402852	-0.075341	0.054567	-0.175886	-0.034335	0.043311	-0.234743	-0.129500	0.050275	-0.184024
59	0.580000	-0.286607	0.956510	-0.073310	-0.228990	0.990674	-0.258564	-0.133073	0.982036	-0.254473	-0.059249	0.958185	-0.070934	-0.349533	0.878962	-0.132431	-0.361227	0.754638	-0.111785	-0.351586	0.774798	-0.049152	-0.343893	0.698518	-0.016171	-0.353757	0.673686	-0.074535	-0.324351	0.535576	-0.019031	-0.203312	0.546254	-0.006016	-0.340810	0.402591	-0.005577	-0.326970	0.424225	0.053105	-0.329046	0.343836	0.087245	-0.343510	0.325598	0.024444	-0.303903	0.120695	0.119642	-0.245388	0.149694	0.165757	-0.247304	0.051090	0.109968	-0.348469	0.149780	0.296588	-0.384845	0.096222	0.249598	-0.290876	0.128216	0.310835	-0.011058	0.892814	-0.157846	-0.014894	0.687642	-0.170272	-0.026271	0.678971	-0.112814	-0.044981	0.599305	-0.131715	-0.032525	0.605166	-0.193757	-0.051652	0.518588	-0.198422	-0.157430	0.537469	-0.183934	-0.047522	0.310726	-0.291873	-0.064565	0.300441	-0.230039	-0.078075	0.217558	-0.257371	-0.061201	0.232914	-0.316143	-0.093830	0.104407	-0.347493	-0.165639	0.120692	-0.305202	-0.149716	0.060487	-0.402457	-0.075370	0.054387	-0.175638	-0.034395	0.043350	-0.234637	-0.129517	0.050126	-0.183829
60	0.590000	-0.286670	0.953844	-0.061833	-0.230240	0.989039	-0.247511	-0.134460	0.980613	-0.244134	-0.059049	0.956162	-0.060974	-0.349663	0.876313	-0.120721	-0.361257	0.752355	-0.102609	-0.351123	0.771792	-0.039272	-0.343047	0.694982	-0.007556	-0.352835	0.670944	-0.066134	-0.323403	0.533034	-0.010039	-0.201919	0.543797	0.001806	-0.339353	0.399681	0.005120	-0.326566	0.423362	0.063163	-0.328634	0.344578	0.100284	-0.342933	0.324096	0.037684	-0.302924	0.121691	0.140135	-0.245635	0.153752	0.186118	-0.244243	0.052628	0.134749	-0.350355	0.157177	0.315751	-0.384697	0.100597	0.271488	-0.292563	0.137600	0.331321	-0.011276	0.891408	-0.148490	-0.015133	0.686981	-0.162879	-0.026527	0.677161	-0.104458	-0.044826	0.597722	-0.124486	-0.032772	0.604427	-0.186811	-0.051615	0.517500	-0.191667	-0.157169	0.536230	-0.176628	-0.047844	0.310903	-0.288059	-0.064934	0.299954	-0.226521	-0.078345	0.217486	-0.255005	-0.061741	0.233542	-0.313698	-0.094180	0.105562	-0.346673	-0.165964	0.121028	-0.303965	-0.150256	0.061286	-0.402178	-0.075472	0.054338	-0.175362	-0.034437	0.043346	-0.234417	-0.129608	0.049975	-0.183696
61	0.600000	-0.286708	0.951184	-0.050448	-0.231553	0.987488	-0.236720	-0.135483	0.979063	-0.233369	-0.059242	0.954337	-0.050934	-0.349850	0.874019	-0.109071	-0.360715	0.750071	-0.091481	-0.350448	0.769594	-0.028664	-0.341752	0.692875	0.002778	-0.352092	0.668913	-0.055858	-0.322721	0.531099	-0.000172	-0.200866	0.540879	0.010962	-0.338719	0.397109	0.016163	-0.326592	0.422533	0.073370	-0.328631	0.344474	0.112525	-0.341965	0.322457	0.050325	-0.301858	0.122179	0.158298	-0.245788	0.156725	0.203871	-0.241810	0.053990	0.155479	-0.351665	0.161857	0.332473	-0.384228	0.102513	0.289973	-0.293265	0.144275	0.348886	-0.011570	0.890088	-0.139293	-0.015192	0.685441	-0.154693	-0.025993	0.675926	-0.096802	-0.044373	0.596819	-0.116682	-0.033001	0.603523	-0.179311	-0.051760	0.516329	-0.184695	-0.157200	0.535123	-0.169165	-0.048094	0.311526	-0.284346	-0.064967	0.299119	-0.222634	-0.078592	0.217534	-0.252552	-0.061826	0.234241	-0.310801	-0.094597	0.106794	-0.345976	-0.166198	0.121275	-0.302584	-0.150660	0.061927	-0.401840	-0.075582	0.054037	-0.175282	-0.034435	0.043267	-0.234124	-0.129628	0.049916	-0.183567
62	0.610000	-0.286704	0.948889	-0.039112	-0.232467	0.985881	-0.225689	-0.136822	0.977598	-0.222956	-0.059070	0.952376	-0.040858	-0.350518	0.871721	-0.098176	-0.361115	0.748559	-0.079556	-0.349035	0.768485	-0.017022	-0.339758	0.691770	0.014705	-0.351747	0.667540	-0.043565	-0.322274	0.529374	0.011130	-0.200486	0.538434	0.021597	-0.337976	0.395528	0.027421	-0.326886	0.421408	0.084499	-0.328815	0.343936	0.124632	-0.341229	0.321376	0.061899	-0.301055	0.121829	0.173587	-0.245670	0.157922	0.218537	-0.240509	0.054234	0.171971	-0.351411	0.163790	0.347403	-0.383109	0.103044	0.306361	-0.292643	0.147279	0.363835	-0.012317	0.888768	-0.129884	-0.015498	0.684400	-0.146599	-0.025604	0.674531	-0.089094	-0.044698	0.594552	-0.109133	-0.033285	0.602650	-0.171890	-0.051964	0.515489	-0.177745	-0.156646	0.533841	-0.161135	-0.048534	0.311871	-0.280277	-0.065180	0.298431	-0.218639	-0.078051	0.216676	-0.249817	-0.061963	0.235226	-0.307934	-0.094809	0.108446	-0.345254	-0.166490	0.121962	-0.301603	-0.150775	0.062994	-0.401455	-0.075760	0.053803	-0.174985	-0.034448	0.043429	-0.233989	-0.129723	0.049749	-0.183427
63	0.620000	-0.286780	0.946669	-0.027942	-0.233788	0.984136	-0.214583	-0.138034	0.976150	-0.212379	-0.059074	0.950713	-0.030912	-0.351029	0.870038	-0.086921	-0.361310	0.747068	-0.065826	-0.347208	0.767788	-0.004110	-0.337595	0.691377	0.028482	-0.351398	0.666469	-0.029106	-0.322553	0.528209	0.023749	-0.199954	0.537185	0.033355	-0.337511	0.394352	0.039552	-0.327147	0.420235	0.096647	-0.328861	0.342797	0.136920	-0.340648	0.319847	0.074501	-0.300365	0.120511	0.186033	-0.244528	0.156182	0.230590	-0.240421	0.052566	0.183906	-0.349065	0.162944	0.360272	-0.381677	0.102472	0.319339	-0.290469	0.146217	0.376036	-0.014074	0.886698	-0.119960	-0.015943	0.683351	-0.138435	-0.026051	0.672287	-0.080520	-0.045056	0.592693	-0.100956	-0.033525	0.601810	-0.164053	-0.052521	0.514726	-0.170256	-0.156592	0.532675	-0.152941	-0.048686	0.312383	-0.275879	-0.065399	0.298472	-0.214851	-0.078239	0.216993	-0.247106	-0.062135	0.236316	-0.305075	-0.094725	0.109657	-0.344124	-0.166380	0.122986	-0.300424	-0.150614	0.064848	-0.400897	-0.075743	0.053331	-0.174921	-0.034337	0.043719	-0.233925	-0.129697	0.049831	-0.183227
64	0.630000	-0.287266	0.945245	-0.016600	-0.235075	0.982761	-0.203716	-0.139546	0.974817	-0.201879	-0.059373	0.949176	-0.020950	-0.351163	0.868652	-0.074994	-0.361313	0.746151	-0.050849	-0.344629	0.767384	0.010052	-0.335820	0.691345	0.043333	-0.351285	0.665335	-0.013019	-0.322883	0.527548	0.038051	-0.200618	0.536532	0.047027	-0.337699	0.393318	0.052568	-0.327156	0.418867	0.110113	-0.328656	0.340908	0.149349	-0.340655	0.318569	0.086928	-0.300026	0.118311	0.195735	-0.242566	0.152642	0.240035	-0.241131	0.049281	0.192033	-0.345706	0.160062	0.370949	-0.379607	0.100757	0.329499	-0.286855	0.141651	0.385765	-0.014226	0.885990	-0.110936	-0.016038	0.682908	-0.130886	-0.026680	0.670856	-0.071780	-0.045174	0.591374	-0.092733	-0.033841	0.600793	-0.155825	-0.052495	0.513644	-0.162767	-0.156764	0.531467	-0.144821	-0.048923	0.312634	-0.271104	-0.065428	0.297935	-0.210499	-0.078215	0.216888	-0.244229	-0.062173	0.237264	-0.301683	-0.094429	0.111090	-0.342737	-0.166254	0.123976	-0.299019	-0.150336	0.067084	-0.400261	-0.075788	0.052046	-0.175500	-0.034472	0.043572	-0.233712	-0.129838	0.049701	-0.182934
65	0.640000	-0.287777	0.944008	-0.005101	-0.236262	0.981434	-0.192679	-0.140884	0.973541	-0.191358	-0.059800	0.947453	-0.010649	-0.352003	0.867271	-0.063719	-0.361213	0.745579	-0.035312	-0.343281	0.767464	0.024693	-0.334935	0.691507	0.058471	-0.351873	0.665226	0.002719	-0.323383	0.527375	0.053445	-0.201104	0.536707	0.061631	-0.338066	0.393110	0.067241	-0.326752	0.417194	0.124617	-0.327908	0.338033	0.162107	-0.341034	0.317416	0.099548	-0.299362	0.115260	0.203388	-0.240159	0.148096	0.247051	-0.241608	0.045404	0.197193	-0.341659	0.154684	0.379721	-0.377234	0.096736	0.337637	-0.283786	0.134757	0.393535	-0.015042	0.883567	-0.100550	-0.016501	0.682200	-0.121918	-0.026818	0.670258	-0.062714	-0.044795	0.590992	-0.083987	-0.034272	0.599829	-0.147148	-0.052749	0.512852	-0.154443	-0.156884	0.530300	-0.136497	-0.048905	0.313827	-0.266619	-0.065368	0.297491	-0.205876	-0.078878	0.217508	-0.241470	-0.061924	0.238698	-0.298132	-0.094261	0.113007	-0.341553	-0.166007	0.125300	-0.297522	-0.149910	0.069551	-0.399437	-0.075902	0.051513	-0.175439	-0.034424	0.043706	-0.233558	-0.129913	0.049682	-0.182464
